<svg xmlns="http://www.w3.org/2000/svg" xmlns:svg="http://www.w3.org/2000/svg" xmlns:xlink="http://www.w3.org/1999/xlink" version="1.0" height="335pt" width="889.9999952316284pt" viewBox="100 477 897.9999952316284 341" ><defs><style type="text/css">
            @font-face {
                font-family: 'noto_regular';
                src: url('https://app.creately.com/diagram/assets/fonts/noto/noto-regular.woff') format('woff'),
                     url('https://app.creately.com/diagram/assets/fonts/noto/noto-regular.woff2') format('woff2');
                font-weight: normal;
                font-style: normal;
            }
        p {
            margin: 0;
        }
        </style></defs><defs><style>
            span{ display: inline-block; }
        </style></defs><g id="1w3v86vcp6"><g transform="translate(315 595)"><rect x="0" y="0" width="100" height="40.00000059604645" fill="rgba(255,255,255,1)" stroke="#75c19b" stroke-width="1.5" stroke-linecap="round" stroke-linejoin="round"/></g><g transform="translate(346, 605.0000002980232) rotate(0, 19, 10)" width="38" height="20"><text text-decoration="none" x="0.5" fill="rgb(75, 75, 75)" font-size="13pt" font-family="Lato"  y="19">User</text><text text-decoration="none" x="37.5" fill="#4b4b4b" font-size="10pt" font-family="noto_regular"  y="19"></text></g></g><g id="3lueyclcm6"><g><path d="M 340,595 L 290,540" fill="none" stroke="#a0a0a0" stroke-width="1.5" stroke-linecap="round" stroke-linejoin="round"/></g></g><g id="2508q2p3v4"><g><path d="M 375,595 L 430,535" fill="none" stroke="#a0a0a0" stroke-width="1.5" stroke-linecap="round" stroke-linejoin="round"/></g></g><g id="2ckldamb2z"><g transform="translate(390 485)"><ellipse cx="50" cy="25" rx="50" ry="25" fill="rgba(255,255,255,1)" stroke="#f6902a" stroke-width="1.5" stroke-linecap="round" stroke-linejoin="round"/></g><g transform="translate(401, 500) rotate(0, 39, 10)" width="78" height="20"><text text-decoration="none" x="3" fill="rgb(75, 75, 75)" font-size="13pt" font-family="Times New Roman"  y="19">Fullname</text><text text-decoration="none" x="75" fill="#4b4b4b" font-size="10pt" font-family="noto_regular"  y="19"></text></g></g><g id="14756efbir"><g><path d="M 341,633.95 L 305,685" fill="none" stroke="#a0a0a0" stroke-width="1.5" stroke-linecap="round" stroke-linejoin="round"/></g></g><g id="a38sr0fadk"><g transform="translate(255 680)"><ellipse cx="50" cy="25" rx="50" ry="25" fill="rgba(255,255,255,1)" stroke="#f6902a" stroke-width="1.5" stroke-linecap="round" stroke-linejoin="round"/></g><g transform="translate(265.5, 695) rotate(0, 39.5, 10)" width="79" height="20"><text text-decoration="none" x="2" fill="rgb(75, 75, 75)" font-size="13pt" font-family="Times New Roman"  y="19">Password</text><text text-decoration="none" x="77" fill="#4b4b4b" font-size="10pt" font-family="noto_regular"  y="19"></text></g></g><g id="1vqjyl170j"><g><path d="M 315,613.95 L 255,615" fill="none" stroke="#a0a0a0" stroke-width="1.5" stroke-linecap="round" stroke-linejoin="round"/></g></g><g id="1ldpyjlqsy"><g transform="translate(155 595)"><ellipse cx="50" cy="25" rx="50" ry="25" fill="rgba(255,255,255,1)" stroke="#f6902a" stroke-width="1.5" stroke-linecap="round" stroke-linejoin="round"/></g><g transform="translate(176, 610) rotate(0, 29, 10)" width="58" height="20"><text text-decoration="none" x="2.5" fill="rgb(75, 75, 75)" font-size="13pt" font-family="Times New Roman"  y="19">Mail&#160;</text><text text-decoration="none" x="38.5" fill="rgb(75, 75, 75)" font-size="13pt" font-family="Times New Roman"  y="19">ID</text><text text-decoration="none" x="55.5" fill="#4b4b4b" font-size="10pt" font-family="noto_regular"  y="19"></text></g></g><g id="2illbaud2r"><g><path d="M 415,615 L 495,615" fill="none" stroke="#a0a0a0" stroke-width="1.5" stroke-linecap="round" stroke-linejoin="round"/></g></g><g id="7s8xqgzppe"><g transform="translate(495 585)"><path d="M 130,30 L 65,60 L 0,30 L 65,0 L 130,30 L 130,30 Z" fill="rgba(255,255,255,1)" stroke="#75c19b" stroke-width="1.5" stroke-linecap="round" stroke-linejoin="round"/></g><g transform="translate(534, 605) rotate(0, 26, 10)" width="52" height="20"><text text-decoration="none" x="2.5" fill="rgb(75, 75, 75)" font-size="13pt" font-family="Times New Roman"  y="19">Sends</text><text text-decoration="none" x="49.5" fill="#4b4b4b" font-size="10pt" font-family="noto_regular"  y="19"></text></g></g><g id="q1dqzfzthr"><g><path d="M 625,615 L 710,615" fill="none" stroke="#a0a0a0" stroke-width="1.5" stroke-linecap="round" stroke-linejoin="round"/></g></g><g id="1z6qru0a5s"><g transform="translate(710 590)"><rect x="0" y="0" width="100" height="50" fill="rgba(255,255,255,1)" stroke="#75c19b" stroke-width="1.5" stroke-linecap="round" stroke-linejoin="round"/></g><g transform="translate(723, 605) rotate(0, 37, 10)" width="74" height="20"><text text-decoration="none" x="2.5" fill="rgb(0, 0, 0)" font-size="13pt" font-family="Times New Roman"  y="19">Message</text><text text-decoration="none" x="71.5" fill="#4b4b4b" font-size="10pt" font-family="noto_regular"  y="19"></text></g></g><g id="1v5ai0vngx"><g transform="translate(225 490)"><ellipse cx="50" cy="25" rx="50" ry="25" fill="rgba(255,255,255,1)" stroke="#f6902a" stroke-width="1.5" stroke-linecap="round" stroke-linejoin="round"/></g><g transform="translate(229.5, 505) rotate(0, 45.5, 10)" width="91" height="20"><text text-decoration="underline" x="2.5" fill="rgb(75, 75, 75)" font-size="13pt" font-family="Times New Roman"  y="19">User&#160;</text><text text-decoration="underline" x="43.5" fill="rgb(75, 75, 75)" font-size="13pt" font-family="Times New Roman"  y="19">name</text><text text-decoration="none" x="88.5" fill="#4b4b4b" font-size="10pt" font-family="noto_regular"  y="19"></text></g></g><g id="q3b9a06j12"><g><path d="M 732,588 L 675,530" fill="none" stroke="#a0a0a0" stroke-width="1.5" stroke-linecap="round" stroke-linejoin="round"/></g></g><g id="1f6warplwf"><g><path d="M 775,590 L 820,535" fill="none" stroke="#a0a0a0" stroke-width="1.5" stroke-linecap="round" stroke-linejoin="round"/></g></g><g id="2hg1xjzs9c"><g><path d="M 731,639 L 695,700" fill="none" stroke="#a0a0a0" stroke-width="1.5" stroke-linecap="round" stroke-linejoin="round"/></g></g><g id="1o5pbuh8w6"><g><path d="M 775,640 L 810,700" fill="none" stroke="#a0a0a0" stroke-width="1.5" stroke-linecap="round" stroke-linejoin="round"/></g></g><g id="kej2upmg6x"><g transform="translate(780 485)"><ellipse cx="50" cy="25" rx="50" ry="25" fill="rgba(255,255,255,1)" stroke="#f6902a" stroke-width="1.5" stroke-linecap="round" stroke-linejoin="round"/></g><g transform="translate(790.5, 490) rotate(0, 39.5, 20)" width="79" height="40"><text text-decoration="none" x="3" fill="rgb(75, 75, 75)" font-size="13pt" font-family="Times New Roman"  y="19">Recipient&#160;</text><text text-decoration="none" x="17" fill="rgb(75, 75, 75)" font-size="13pt" font-family="Times New Roman"  y="43">name</text><text text-decoration="none" x="62" fill="#4b4b4b" font-size="10pt" font-family="noto_regular"  y="43"></text></g></g><g id="24kqilkt0z"><g transform="translate(625 690)"><ellipse cx="67.5000011920929" cy="25" rx="67.5000011920929" ry="25" fill="rgba(255,255,255,1)" stroke="#f6902a" stroke-width="1.5" stroke-linecap="round" stroke-linejoin="round"/></g><g transform="translate(618.5000011920929, 705) rotate(0, 74, 10)" width="148" height="20"><text text-decoration="none" x="5.5" fill="rgb(75, 75, 75)" font-size="13pt" font-family="Times New Roman"  y="19">Message_content</text><text text-decoration="none" x="142.5" fill="#4b4b4b" font-size="10pt" font-family="noto_regular"  y="19"></text></g></g><g id="df5hr7bcbm"><g transform="translate(785 695)"><ellipse cx="50" cy="25" rx="50" ry="25" fill="rgba(255,255,255,1)" stroke="#f6902a" stroke-width="1.5" stroke-linecap="round" stroke-linejoin="round"/></g><g transform="translate(807, 700) rotate(0, 28, 20)" width="56" height="40"><text text-decoration="none" x="8.5" fill="rgb(75, 75, 75)" font-size="13pt" font-family="Times New Roman"  y="19">Time&#160;</text><text text-decoration="none" x="3" fill="rgb(75, 75, 75)" font-size="13pt" font-family="Times New Roman"  y="43">Stamp</text><text text-decoration="none" x="53" fill="#4b4b4b" font-size="10pt" font-family="noto_regular"  y="43"></text></g></g><g id="aipsm7pnrw"><g><path d="M 313,601 L 185,550" fill="none" stroke="#a0a0a0" stroke-width="1.5" stroke-linecap="round" stroke-linejoin="round"/></g></g><g id="jc2yfxz2df"><g transform="translate(105 510)"><ellipse cx="50" cy="25" rx="50" ry="25" fill="rgba(255,255,255,1)" stroke="#f6902a" stroke-width="1.5" stroke-linecap="round" stroke-linejoin="round"/></g><g transform="translate(128.5, 525) rotate(0, 26.5, 10)" width="53" height="20"><text text-decoration="none" x="2" fill="rgb(75, 75, 75)" font-size="13pt" font-family="Times New Roman"  y="19">Image</text><text text-decoration="none" x="51" fill="#4b4b4b" font-size="10pt" font-family="noto_regular"  y="19"></text></g></g><g id="19ltrzwiqr"><g transform="translate(330 590)"><rect x="0" y="0" width="184.9997878074646" height="37" fill="rgba(255,255,255,0.01)" stroke="rgba(255,255,255,0.01)" stroke-width="NaN" stroke-linecap="round" stroke-linejoin="round"/></g><g transform="translate(418.4998939037323, 599) rotate(0, 4, 9.5)" width="8" height="19"><text text-decoration="none" x="0.5" fill="rgb(0, 0, 0)" font-size="9pt" font-family="Lato"  y="17">1</text><text text-decoration="none" x="7.5" fill="#4b4b4b" font-size="10pt" font-family="noto_regular"  y="17"></text></g></g><g id="a39j9kwk5p"><g transform="translate(540 575)"><rect x="0" y="0" width="314.0471577644348" height="63.00000214576721" fill="rgba(255,255,255,0.01)" stroke="rgba(255,255,255,0.01)" stroke-width="NaN" stroke-linecap="round" stroke-linejoin="round"/></g><g transform="translate(692.0235788822174, 597.0000010728836) rotate(0, 5, 9.5)" width="10" height="19"><text text-decoration="none" x="0" fill="rgb(0, 0, 0)" font-size="9pt" font-family="Lato"  y="17">M</text><text text-decoration="none" x="11" fill="#4b4b4b" font-size="10pt" font-family="noto_regular"  y="17"></text></g></g><g id="8q6mvtxrw5"><g transform="translate(575 480)"><ellipse cx="75" cy="34.722137451171875" rx="75" ry="34.722137451171875" fill="rgba(255,255,255,1)" stroke="#f6902a" stroke-width="1.5" stroke-linecap="round" stroke-linejoin="round"/></g><g transform="translate(593.5, 504.7221374511719) rotate(0, 56.5, 10)" width="113" height="20"><text text-decoration="none" x="4" fill="rgb(75, 75, 75)" font-size="13pt" font-family="Times New Roman"  y="19">Sender&#160;</text><text text-decoration="none" x="64" fill="rgb(75, 75, 75)" font-size="13pt" font-family="Times New Roman"  y="19">name</text><text text-decoration="none" x="109" fill="#4b4b4b" font-size="10pt" font-family="noto_regular"  y="19"></text></g></g><g id="29a0vf5996"><g><path d="M 375,635 L 385,765" fill="none" stroke="#a0a0a0" stroke-width="1.5" stroke-linecap="round" stroke-linejoin="round"/></g></g><g id="11113ex8h1"><g transform="translate(335 765)"><ellipse cx="50" cy="25" rx="50" ry="25" fill="rgba(255,255,255,1)" stroke="#f6902a" stroke-width="1.5" stroke-linecap="round" stroke-linejoin="round"/></g><g transform="translate(357.5, 780) rotate(0, 27.5, 10)" width="55" height="20"><text text-decoration="none" x="3.5" fill="rgb(75, 75, 75)" font-size="13pt" font-family="Times New Roman"  y="19">Status</text><text text-decoration="none" x="51.5" fill="#4b4b4b" font-size="10pt" font-family="noto_regular"  y="19"></text></g></g><g id="1mibcg7nfv"><g><path d="M 811,610 L 890,610" fill="none" stroke="#a0a0a0" stroke-width="1.5" stroke-linecap="round" stroke-linejoin="round"/></g></g><g id="158vwnunc1"><g transform="translate(890 585)"><ellipse cx="52.49999761581421" cy="25" rx="52.49999761581421" ry="25" fill="rgba(255,255,255,1)" stroke="#f6902a" stroke-width="1.5" stroke-linecap="round" stroke-linejoin="round"/></g><g transform="translate(893.9999976158142, 600) rotate(0, 48.5, 10)" width="97" height="20"><text text-decoration="underline" x="3.5" fill="rgb(75, 75, 75)" font-size="13pt" font-family="Times New Roman"  y="19">Message&#160;</text><text text-decoration="underline" x="76.5" fill="rgb(75, 75, 75)" font-size="13pt" font-family="Times New Roman"  y="19">ID</text><text text-decoration="none" x="93.5" fill="#4b4b4b" font-size="10pt" font-family="noto_regular"  y="19"></text></g></g></svg>